3.0Hz3min_grf.mot
version=1
nRows=17
nColumns 19
inDegrees=yes
endheader
time	1_ground_force_vx	1_ground_force_vy	1_ground_force_vz	1_ground_force_px	1_ground_force_py	1_ground_force_pz	1_ground_torque_x	1_ground_torque_y	1_ground_torque_z	2_ground_force_vx	2_ground_force_vy	2_ground_force_vz	2_ground_force_px	2_ground_force_py	2_ground_force_pz	2_ground_torque_x	2_ground_torque_y	2_ground_torque_z
            3.751500	           -1.320859	          129.273833	           -4.945310	           -0.143548	            0.006103	           -0.373580	           -0.001428	            0.139751	           -0.005346	          -11.445926	           69.011685	            1.236650	           -0.141063	            0.006105	           -0.734315	            0.026258	           -0.158320	           -0.002837
            3.752000	           -1.689137	          131.438916	           -5.393683	           -0.142381	            0.006111	           -0.375228	           -0.003555	            0.276604	           -0.011351	          -11.874015	           70.849972	            1.712681	           -0.140498	            0.006105	           -0.733751	            0.023776	           -0.141867	           -0.003429
            3.752500	           -1.644653	          135.766284	           -5.604525	           -0.143571	            0.006108	           -0.374800	           -0.004494	            0.370998	           -0.015315	          -12.583828	           72.871050	            2.283344	           -0.139415	            0.006106	           -0.732917	            0.024142	           -0.139804	           -0.004381
            3.753000	           -2.058386	          139.552570	           -5.770693	           -0.143450	            0.006108	           -0.374711	           -0.004902	            0.332353	           -0.013743	          -13.015761	           75.813056	            3.091814	           -0.140970	            0.006108	           -0.735135	            0.040415	           -0.235406	           -0.009600
            3.753500	           -2.151836	          142.979566	           -6.214338	           -0.142511	            0.006111	           -0.375391	           -0.003263	            0.216840	           -0.009425	          -13.304089	           77.837011	            3.286874	           -0.138725	            0.006111	           -0.733534	            0.045622	           -0.266914	           -0.011271
            3.754000	           -2.429975	          146.769221	           -7.160397	           -0.143163	            0.006106	           -0.374098	           -0.002036	            0.122994	           -0.006000	          -13.643234	           80.965504	            3.532824	           -0.141631	            0.006103	           -0.734370	            0.047175	           -0.279962	           -0.012216
            3.754500	           -2.524270	          149.837258	           -7.972436	           -0.142855	            0.006108	           -0.374547	           -0.003997	            0.237269	           -0.012624	          -13.883945	           82.804635	            3.961847	           -0.141154	            0.006109	           -0.735541	            0.039001	           -0.232602	           -0.011129
            3.755000	           -3.078022	          154.168443	           -9.098917	           -0.143607	            0.006106	           -0.374314	           -0.003731	            0.186883	           -0.011030	          -14.409304	           85.565341	            3.878066	           -0.140812	            0.006112	           -0.735909	            0.034355	           -0.204006	           -0.009246
            3.755500	           -3.125593	          156.153716	           -9.640572	           -0.143619	            0.006109	           -0.374892	           -0.006311	            0.315290	           -0.019465	          -15.122481	           88.507503	            4.358159	           -0.141716	            0.006108	           -0.735757	            0.035400	           -0.207184	           -0.010202
            3.756000	           -3.264238	          161.021256	           -9.711072	           -0.143794	            0.006106	           -0.374217	           -0.006722	            0.331589	           -0.019998	          -15.501062	           89.609366	            4.831542	           -0.141782	            0.006107	           -0.735744	            0.031970	           -0.184814	           -0.009965
            3.756500	           -3.172884	          164.085397	           -9.606448	           -0.144424	            0.006103	           -0.373567	           -0.005874	            0.303780	           -0.017785	          -16.069057	           91.263157	            5.260047	           -0.140291	            0.006113	           -0.735774	            0.041525	           -0.235837	           -0.013593
            3.757000	           -3.128088	          167.330974	           -9.776072	           -0.144256	            0.006103	           -0.373554	           -0.004233	            0.226445	           -0.013230	          -15.891668	           94.026401	            5.175967	           -0.141530	            0.006111	           -0.736460	            0.060004	           -0.355027	           -0.019544
            3.757500	           -2.900329	          170.937708	          -10.082173	           -0.144889	            0.006101	           -0.373216	           -0.002851	            0.168050	           -0.009912	          -16.178646	           95.681877	            5.416641	           -0.141916	            0.006109	           -0.736188	            0.059401	           -0.351304	           -0.019888
            3.758000	           -2.856115	          172.382202	          -10.626374	           -0.144188	            0.006105	           -0.374113	           -0.003272	            0.197489	           -0.012174	          -16.420873	           97.890811	            5.424625	           -0.139991	            0.006115	           -0.735944	            0.035379	           -0.210907	           -0.011687
            3.758500	           -3.041071	          175.448452	          -11.025482	           -0.144566	            0.006104	           -0.373860	           -0.005382	            0.310531	           -0.019514	          -16.431445	          100.836682	            5.575922	           -0.141193	            0.006111	           -0.736205	            0.033958	           -0.208394	           -0.011523
            3.759000	           -2.768427	          178.696433	          -11.745945	           -0.144086	            0.006103	           -0.373460	           -0.005663	            0.365558	           -0.024029	          -16.812891	          102.676812	            5.582652	           -0.142241	            0.006109	           -0.736741	            0.045947	           -0.280602	           -0.015257
            3.759500	           -2.907166	          181.581837	          -12.008372	           -0.144338	            0.006105	           -0.374016	           -0.004041	            0.252395	           -0.016691	          -16.869626	          105.438206	            5.780241	           -0.142806	            0.006107	           -0.736607	            0.046137	           -0.288362	           -0.015808
